# Made in Blockbench 4.9.4
mtllib door.mtl

o cuboid
v 0.5 2 -0.375
v 0.5 2 -0.5
v 0.5 0 -0.375
v 0.5 0 -0.5
v -0.5 2 -0.375
v -0.5 2 -0.5
v -0.5 0 -0.375
v -0.5 0 -0.5
v 0.4375 1.9375 -0.484375
v 0.4375 0.0625 -0.484375
v -0.4375 1.9375 -0.484375
v -0.4375 0.0625 -0.484375
v 0.4375 1.9375 -0.390625
v -0.4375 1.9375 -0.390625
v 0.4375 0.0625 -0.390625
v -0.4375 0.0625 -0.390625
vt 0.015625 0.734375
vt 0 0.734375
vt 0 0.484375
vt 0.015625 0.484375
vt 0.0390625 0.484375
vt 0.0390625 0.734375
vt 0.0234375 0.734375
vt 0.0234375 0.484375
vt 0.046875 0.71875
vt 0.171875 0.71875
vt 0.171875 0.734375
vt 0.046875 0.734375
vt 0.3046875 0.71875
vt 0.3046875 0.734375
vt 0.1796875 0.734375
vt 0.1796875 0.71875
vt 0.119141015625 0.757571875
vt 0.119141015625 0.991946875
vt 0.009766015624999999 0.991946875
vt 0.009766015624999999 0.757571875
vt 0.259765234375 0.991946875
vt 0.15039023437500001 0.991946875
vt 0.15039023437500001 0.757571875
vt 0.259765234375 0.757571875
vt 0.15039023437500001 0.991946875
vt 0.259765234375 0.991946875
vt 0.267577734375 1
vt 0.14257773437500001 1
vt 0.15039023437500001 0.757571875
vt 0.15039023437500001 0.991946875
vt 0.14233789062500002 0.999759375
vt 0.14233789062500002 0.749759375
vt 0.259765234375 0.757571875
vt 0.15039023437500001 0.757571875
vt 0.14257773437500001 0.74951875
vt 0.267577734375 0.74951875
vt 0.259765234375 0.991946875
vt 0.259765234375 0.757571875
vt 0.267818359375 0.749759375
vt 0.267818359375 0.999759375
vt 0.119141015625 0.991946875
vt 0.119141015625 0.757571875
vt 0.12719335937499998 0.749759375
vt 0.12719335937499998 0.999759375
vt 0.009766015624999999 0.991946875
vt 0.119141015625 0.991946875
vt 0.126953515625 1
vt 0.001953515624999999 1
vt 0.009766015624999999 0.757571875
vt 0.009766015624999999 0.991946875
vt 0.0017128906250000048 0.999759375
vt 0.0017128906250000048 0.749759375
vt 0.119141015625 0.757571875
vt 0.009766015624999999 0.757571875
vt 0.001953515624999999 0.74951875
vt 0.126953515625 0.74951875
vn 1 0 0
vn -1 0 0
vn 0 1 0
vn 0 -1 0
vn 0 0 1
vn 0 0 -1
vn 0 -0.24253562503633297 -0.9701425001453319
vn -0.24253562503633297 0 -0.9701425001453319
vn 0 0.24253562503633297 -0.9701425001453319
vn 0.24253562503633297 0 -0.9701425001453319
vn -0.24253562503633297 0 0.9701425001453319
vn 0 -0.24253562503633297 0.9701425001453319
vn 0.24253562503633297 0 0.9701425001453319
vn 0 0.24253562503633297 0.9701425001453319
usemtl m_c464722b-16c0-11d2-9308-c2d631a6c1d2
f 2/1/1 1/2/1 3/3/1 4/4/1
f 7/5/2 5/6/2 6/7/2 8/8/2
f 5/9/3 1/10/3 2/11/3 6/12/3
f 4/13/4 3/14/4 7/15/4 8/16/4
f 15/17/5 13/18/5 14/19/5 16/20/5
f 11/21/6 9/22/6 10/23/6 12/24/6
f 9/25/7 11/26/7 6/27/7 2/28/7
f 10/29/8 9/30/8 2/31/8 4/32/8
f 12/33/9 10/34/9 4/35/9 8/36/9
f 11/37/10 12/38/10 8/39/10 6/40/10
f 13/41/11 15/42/11 3/43/11 1/44/11
f 14/45/12 13/46/12 1/47/12 5/48/12
f 16/49/13 14/50/13 5/51/13 7/52/13
f 15/53/14 16/54/14 7/55/14 3/56/14
o cuboid
v -0.28125 1.1875 -0.546875
v -0.28125 1.1875 -0.578125
v -0.28125 0.875 -0.546875
v -0.28125 0.875 -0.578125
v -0.34375 1.1875 -0.546875
v -0.34375 1.1875 -0.578125
v -0.34375 0.875 -0.546875
v -0.34375 0.875 -0.578125
v -0.28125 1.125 -0.578125
v -0.34375 1.125 -0.578125
v -0.34375 1.125 -0.546875
v -0.28125 1.125 -0.546875
v -0.34375 0.9375 -0.578125
v -0.28125 0.9375 -0.578125
v -0.28125 0.9375 -0.546875
v -0.34375 0.9375 -0.546875
v -0.34375 1.1875 -0.484375
v -0.34375 1.125 -0.484375
v -0.28125 1.125 -0.484375
v -0.28125 1.1875 -0.484375
v -0.28125 0.875 -0.484375
v -0.28125 0.9375 -0.484375
v -0.34375 0.9375 -0.484375
v -0.34375 0.875 -0.484375
vt 0.2890625 0.9921875
vt 0.2890625 0.96875
vt 0.29296875 0.96875
vt 0.29296875 0.9921875
vt 0.28125 0.9453125
vt 0.28125 0.921875
vt 0.28515625 0.921875
vt 0.28515625 0.9453125
vt 0.28125 0.82421875
vt 0.2890625 0.82421875
vt 0.2890625 0.828125
vt 0.28125 0.828125
vt 0.2890625 0.79296875
vt 0.2890625 0.796875
vt 0.28125 0.796875
vt 0.28125 0.79296875
vt 0.28125 0.859375
vt 0.28125 0.8359375
vt 0.2890625 0.8359375
vt 0.2890625 0.859375
vt 0.28125 0.8984375
vt 0.28125 0.875
vt 0.2890625 0.875
vt 0.2890625 0.8984375
vt 0.28125 0.90625
vt 0.28125 0.8984375
vt 0.2890625 0.8984375
vt 0.2890625 0.90625
vt 0.28125 0.953125
vt 0.28125 0.9453125
vt 0.28515625 0.9453125
vt 0.28515625 0.953125
vt 0.2890625 1
vt 0.2890625 0.9921875
vt 0.29296875 0.9921875
vt 0.29296875 1
vt 0.2890625 0.8671875
vt 0.2890625 0.875
vt 0.28125 0.875
vt 0.28125 0.8671875
vt 0.29296875 0.9609375
vt 0.29296875 0.96875
vt 0.2890625 0.96875
vt 0.2890625 0.9609375
vt 0.28515625 0.9140625
vt 0.28515625 0.921875
vt 0.28125 0.921875
vt 0.28125 0.9140625
vt 0.29296875 0.9453125
vt 0.29296875 0.953125
vt 0.28515625 0.953125
vt 0.28515625 0.9453125
vt 0.2890625 0.7578125
vt 0.28125 0.7578125
vt 0.28125 0.75
vt 0.2890625 0.75
vt 0.28125 1
vt 0.28125 0.9921875
vt 0.2890625 0.9921875
vt 0.2890625 1
vt 0.28125 0.81640625
vt 0.2890625 0.81640625
vt 0.2890625 0.82421875
vt 0.28125 0.82421875
vt 0.28125 0.96875
vt 0.28125 0.9609375
vt 0.2890625 0.9609375
vt 0.2890625 0.96875
vt 0.046875 0.703125
vt 0.0546875 0.703125
vt 0.0546875 0.7109375
vt 0.046875 0.7109375
vt 0.29296875 0.9140625
vt 0.29296875 0.921875
vt 0.28515625 0.921875
vt 0.28515625 0.9140625
vt 0.2890625 0.8046875
vt 0.28125 0.8046875
vt 0.28125 0.796875
vt 0.2890625 0.796875
vn 1 0 0
vn -1 0 0
vn 0 1 0
vn 0 -1 0
vn 0 0 1
vn 0 0 -1
vn 0 0 -1
vn -1 0 0
vn 1 0 0
vn 0 0 -1
vn 1 0 0
vn -1 0 0
vn -1 0 0
vn 0 -1 0
vn 1 0 0
vn 0 1 0
vn 1 0 0
vn 0 1 0
vn -1 0 0
vn 0 -1 0
usemtl m_c464722b-16c0-11d2-9308-c2d631a6c1d2
f 28/57/15 31/58/15 30/59/15 25/60/15
f 26/61/16 29/62/16 32/63/16 27/64/16
f 21/65/17 17/66/17 18/67/17 22/68/17
f 20/69/18 19/70/18 23/71/18 24/72/18
f 27/73/19 32/74/19 31/75/19 28/76/19
f 25/77/20 30/78/20 29/79/20 26/80/20
f 18/81/21 25/82/21 26/83/21 22/84/21
f 22/85/22 26/86/22 27/87/22 21/88/22
f 17/89/23 28/90/23 25/91/23 18/92/23
f 24/93/24 29/94/24 30/95/24 20/96/24
f 20/97/25 30/98/25 31/99/25 19/100/25
f 23/101/26 32/102/26 29/103/26 24/104/26
f 34/105/27 33/106/27 21/107/27 27/108/27
f 35/109/28 34/110/28 27/111/28 28/112/28
f 36/113/29 35/114/29 28/115/29 17/116/29
f 33/117/30 36/118/30 17/119/30 21/120/30
f 38/121/31 37/122/31 19/123/31 31/124/31
f 39/125/32 38/126/32 31/127/32 32/128/32
f 40/129/33 39/130/33 32/131/33 23/132/33
f 37/133/34 40/134/34 23/135/34 19/136/34
o cylinder
v -0.3125 0.7968749999999998 -0.515625
v -0.29745079316226475 0.8281249999999998 -0.48437499999999994
v -0.29745079316226475 0.8281249999999998 -0.5156249999999999
v -0.2786847391834834 0.8045931126161706 -0.48437499999999994
v -0.2786847391834834 0.8045931126161706 -0.515625
v -0.2853822663051526 0.7752493290115593 -0.48437499999999994
v -0.2853822663051526 0.7752493290115593 -0.515625
v -0.3125 0.7621901167445391 -0.48437499999999994
v -0.3125 0.7621901167445391 -0.515625
v -0.3396177336948474 0.7752493290115593 -0.48437499999999994
v -0.3396177336948474 0.7752493290115593 -0.515625
v -0.3463152608165166 0.8045931126161706 -0.48437499999999994
v -0.3463152608165166 0.8045931126161706 -0.515625
v -0.32754920683773525 0.8281249999999998 -0.48437499999999994
v -0.32754920683773525 0.8281249999999998 -0.5156249999999999
vt 0.109375 0.703125
vt 0.1171875 0.703125
vt 0.1171875 0.7109375
vt 0.109375 0.7109375
vt 0.288991015625 0.7730078125
vt 0.291336328125 0.77595
vt 0.287109765625 0.7769140625
vt 0.078125 0.703125
vt 0.0859375 0.703125
vt 0.0859375 0.7109375
vt 0.078125 0.7109375
vt 0.291336328125 0.77595
vt 0.290499609375 0.77961796875
vt 0.287109765625 0.7769140625
vt 0.140625 0.703125
vt 0.1484375 0.703125
vt 0.1484375 0.7109375
vt 0.140625 0.7109375
vt 0.290499609375 0.77961796875
vt 0.287109765625 0.78125
vt 0.287109765625 0.7769140625
vt 0.15625 0.703125
vt 0.1640625 0.703125
vt 0.1640625 0.7109375
vt 0.15625 0.7109375
vt 0.287109765625 0.78125
vt 0.283719921875 0.77961796875
vt 0.287109765625 0.7769140625
vt 0.09375 0.703125
vt 0.1015625 0.703125
vt 0.1015625 0.7109375
vt 0.09375 0.7109375
vt 0.283719921875 0.77961796875
vt 0.282882421875 0.77595
vt 0.287109765625 0.7769140625
vt 0.125 0.703125
vt 0.1328125 0.703125
vt 0.1328125 0.7109375
vt 0.125 0.7109375
vt 0.282882421875 0.77595
vt 0.285228515625 0.7730078125
vt 0.287109765625 0.7769140625
vt 0.0625 0.703125
vt 0.0703125 0.703125
vt 0.0703125 0.7109375
vt 0.0625 0.7109375
vt 0.285228515625 0.7730078125
vt 0.288991015625 0.7730078125
vt 0.287109765625 0.7769140625
vn 0.7818314824680297 0.6234898018587337 1.3844254672850858e-16
vn 0 2.220446049250313e-16 -1
vn 0.9749279121818237 -0.22252093395631464 -4.940957286787887e-17
vn 0 2.220446049250313e-16 -1
vn 0.4338837391175588 -0.9009688679024189 -2.0005527632314533e-16
vn 0 2.220446049250313e-16 -1
vn -0.4338837391175588 -0.9009688679024189 -2.0005527632314533e-16
vn 0 2.220446049250313e-16 -1
vn -0.9749279121818237 -0.22252093395631464 -4.940957286787887e-17
vn 0 2.220446049250313e-16 -1
vn -0.7818314824680297 0.6234898018587337 1.3844254672850858e-16
vn 0 2.220446049250313e-16 -1
vn 0 1 2.220446049250313e-16
vn 0 2.220446049250313e-16 -1
usemtl m_c464722b-16c0-11d2-9308-c2d631a6c1d2
f 42/137/35 44/138/35 45/139/35 43/140/35
f 43/141/36 45/142/36 41/143/36
f 44/144/37 46/145/37 47/146/37 45/147/37
f 45/148/38 47/149/38 41/150/38
f 46/151/39 48/152/39 49/153/39 47/154/39
f 47/155/40 49/156/40 41/157/40
f 48/158/41 50/159/41 51/160/41 49/161/41
f 49/162/42 51/163/42 41/164/42
f 50/165/43 52/166/43 53/167/43 51/168/43
f 51/169/44 53/170/44 41/171/44
f 52/172/45 54/173/45 55/174/45 53/175/45
f 53/176/46 55/177/46 41/178/46
f 54/179/47 42/180/47 43/181/47 55/182/47
f 55/183/48 43/184/48 41/185/48