# Made in Blockbench 4.9.4
mtllib hand.mtl

o cuboid
v 0.046875 0.1875 0.5
v 0.078125 0.18125 -0.71875
v 0.046875 0 0.53125
v 0.078125 0.015625 -0.71875
v -0.03125 0.1875 0.5
v -0.078125 0.18125 -0.71875
v -0.03125 0 0.53125
v -0.078125 0.015625 -0.71875
v 0.0625 0.1875 0.365625
v -0.046875 0.1875 0.365625
v -0.046875 0 0.375
v 0.0625 0 0.359375
v 0.046875 0.265625 0.5625
v 0.046875 0.259375 0.5
v 0 0.259375 0.5
v 0 0.265625 0.5625
v 0.15625 0.171875 0.6875
v 0.109375 0.171875 0.71875
v 0.140625 0.0625 0.6875
v 0.09375 0.0625 0.71875
v 0.10156249648275942 0.015625 0.6406250422068871
v 0.10156249648275942 0.1875 0.6250000422068871
v 0.015625 0.1875 0.6250000422068871
v 0.015625 0.015625 0.6250000422068871
v -0.02027774862826805 0.21493062842932986 0.5102083770575979
v 0.046875 0.21493062842932986 0.5102083770575979
v 0.05701387431413402 0.22118062842932987 0.40250013117279376
v -0.02027774862826805 0.22118062842932987 0.40250013117279376
v 0.046875 0.1609375 0.2296875
v 0.046875 0.0234375 0.2265625
v -0.0546875 0.0234375 0.234375
v -0.0546875 0.1609375 0.2296875
v -0.00390625 0.1765625 0.2296875
v 0 0.196875 -0.71875
v 0 0.015625 -0.71875
v -0.00390625 0.0234375 0.23046875
v 0.0078125 0 0.3671875
v 0.0078125 0 0.53125
v 0.05859374824137971 0.015625 0.6328125422068871
v 0.1171875 0.0625 0.703125
v 0.1328125 0.171875 0.703125
v 0.05859374824137971 0.1875 0.6250000422068871
v 0.0078125 0.1875 0.5
v 0.013298625685865977 0.21493062842932986 0.5102083770575979
v 0.0234375 0.265625 0.5625
v 0.0234375 0.259375 0.5
v 0.018368062842932985 0.22118062842932987 0.40250013117279376
v 0.0078125 0.1875 0.365625
v 0.0625 0.09218849635313128 0.22812502264438933
v 0.09375 0.09843870015263541 -0.71875
v 0 0.10625131337458214 -0.71875
v -0.09375 0.09843870015263541 -0.71875
v -0.0703125 0.09218849635313128 0.04453121603341598
v -0.046875 0.09375135866336085 0.37031243206683195
v -0.03125 0.09375135866336085 0.5156247735561065
v 0.015625 0.1015637454414141 0.6250000422068871
v 0.10156261322194673 0.11718829255362716 0.71875
v 0.12500011322194673 0.11718829255362716 0.703125
v 0.14843761322194673 0.11718829255362716 0.6875
v 0.10156249648275942 0.1015637454414141 0.6328124289849404
v 0.046875 0.09375135866336085 0.5156247735561065
v 0.0625 0.09375135866336085 0.36250004528877866
vt 0.41066019142142773 0.7148658969293956
vt 0.40987889781932757 0.7492428154218029
vt 0.34223968238855884 0.7500118855711845
vt 0.34379983413118 0.7031349280507004
vt 0.45696358134236487 0.8655789502247975
vt 0.454618665939004 0.9124544168224054
vt 0.38536875416474087 0.9116666975060908
vt 0.3865406425251836 0.8772913055997708
vt 0.1875 0.27564374999999997
vt 0.162109375 0.27564374999999997
vt 0.16796875 0.20639062500000005
vt 0.1953125 0.20639062500000005
vt 0.07133997538756313 0.6182269105932384
vt 0.0439980706060729 0.6221328969905942
vt 0.03800433232246622 0.5527873213307537
vt 0.06339323649852875 0.5508120741615772
vt 0.421875 0.5625
vt 0.421875 0.6093756793316805
vt 0.375 0.6093756793316805
vt 0.375 0.5625
vt 0.1875 0.12905937499999998
vt 0.17578125 0.12905937499999998
vt 0.17578125 0.09765312500000001
vt 0.1875 0.09765312500000001
vt 0.5354697664493993 0.8656019540084134
vt 0.5276919901055198 0.9124779861748441
vt 0.45461863487667264 0.9124550377664586
vt 0.45696351921680184 0.8655801921309023
vt 0.06353116582458267 0.7041638833879499
vt 0.04399991582458267 0.7041638833879499
vt 0.04399991582458267 0.6221326333879499
vt 0.07134366582458267 0.6182263833879499
vt 0.34379983413118 0.7031349280507004
vt 0.3422397308926614 0.7500104281970745
vt 0.26528517956177244 0.7499984492502861
vt 0.25750920970230917 0.703125
vt 0.34067967287279655 0.7968845696852812
vt 0.3220434170823365 0.8137273951873694
vt 0.26795353665785315 0.8105330578940942
vt 0.2730515143832405 0.7968705379494994
vt 0.1953125 0.20639062500000005
vt 0.16796875 0.20639062500000005
vt 0.17324687500000002 0.18141874999999996
vt 0.19256875 0.18141874999999996
vt 0.5199144391958078 0.9593526596676873
vt 0.5256356763063135 0.9738963319328555
vt 0.4719386477394121 0.9790641590911976
vt 0.4525285186840794 0.9593286156425975
vt 0.41796875 0.483384375
vt 0.40118125 0.483384375
vt 0.3984375 0.46875
vt 0.41796875 0.46875
vt 0.25750920970230917 0.703125
vt 0.2652830263246781 0.7499854695639587
vt 0.2007014649351092 0.7547930918561984
vt 0.19655906248331434 0.7118447150719496
vt 0.2890625 0.65625
vt 0.26953125 0.65625
vt 0.294921875 0.59375
vt 0.31640625 0.59375
vt 0.5877032079616273 0.8745185746569742
vt 0.5869965114912471 0.9174821356372956
vt 0.5276718121216095 0.9125995972601993
vt 0.5354294098967151 0.8658451797040503
vt 0.09087102580849346 0.7594019420230091
vt 0.06937720596072816 0.7555429117559848
vt 0.043991543280035406 0.7041638833879499
vt 0.06351442073548814 0.7041638833879499
vt 0.19655906248331434 0.7118447150719496
vt 0.20070138473070667 0.7547922602979567
vt 0.1649449357483605 0.7635715062577965
vt 0.1666531728714985 0.736048433651713
vt 0.31640625 0.59375
vt 0.294921875 0.59375
vt 0.33203125 0.5539578125
vt 0.34375 0.5615375
vt 0.6480782735847794 0.8989523388739871
vt 0.6503907240422905 0.9263382209290872
vt 0.5869965114912471 0.9174821356372956
vt 0.5877032079616273 0.8745185746569742
vt 0.4760068916027472 0.5
vt 0.5036288461042393 0.5
vt 0.5019716541004571 0.515625
vt 0.474349699598965 0.515625
vt 0.10881452272412916 0.791912621014945
vt 0.09735968733080501 0.798382380184304
vt 0.06937720596072816 0.7555429117559848
vt 0.09087102580849346 0.7594019420230091
vt 0.41796875 0.5198
vt 0.40625 0.5198
vt 0.40118125 0.483384375
vt 0.41796875 0.483384375
vt 0.24188304113486797 0.8359587879625532
vt 0.26795353665785315 0.8105330578940942
vt 0.3220439581797596 0.813727427142472
vt 0.2730146873514954 0.8326258910996129
vt 0.19256875 0.18141874999999996
vt 0.17324687500000002 0.18141874999999996
vt 0.17578125 0.12905937499999998
vt 0.1875 0.12905937499999998
vt 0.5215922147721214 0.9985201977703454
vt 0.4719386477394121 0.9790641590911976
vt 0.5256347584688255 0.9738964202659649
vt 0.5528965108813195 1
vt 0.7898882518625523 0.7109624875199121
vt 0.7898882518625523 0.7523693375962298
vt 0.4098788655403577 0.7492442356964777
vt 0.4106601268625523 0.7148687375199121
vt 0.06339323649852875 0.5508120741615772
vt 0.03800433232246622 0.5527873213307537
vt 0.03962246951804872 0.17190807723212687
vt 0.0786844617602266 0.171875
vt 0.3865406425251836 0.8772913055997708
vt 0.38536875054189157 0.9116668037763364
vt 0.003546892525183587 0.9147919056760884
vt 0.003546892525183587 0.8733850555997706
vt 0.203125 0.65625
vt 0.1640625 0.65625
vt 0.162109375 0.27564374999999997
vt 0.1875 0.27564374999999997
vt 0.13671875 0.27564374999999997
vt 0.162109375 0.27564374999999997
vt 0.1640625 0.65625
vt 0.125 0.65625
vt 0.46875 0.5625
vt 0.46875 0.6093756793316805
vt 0.421875 0.6093756793316805
vt 0.421875 0.5625
vt 0.0005604772758708437 0.17194115446425384
vt 0.03962246951804872 0.17190807723212687
vt 0.03800433232246622 0.5527873213307537
vt 0.012615428146403693 0.5547625684999301
vt 0.012615428146403693 0.5547625684999301
vt 0.03800433232246622 0.5527873213307537
vt 0.0439980706060729 0.6221328969905942
vt 0.016656165824582667 0.6260388833879499
vt 0.016656165824582667 0.6260388833879499
vt 0.04399991582458267 0.6221326333879499
vt 0.04399991582458267 0.7041638833879499
vt 0.024468665824582667 0.7041638833879499
vt 0.024468665824582667 0.7041638833879499
vt 0.043991543280035406 0.7041638833879499
vt 0.06937720596072816 0.7555429117559848
vt 0.04788338611296286 0.7516838814889604
vt 0.04788338611296286 0.7516838814889604
vt 0.06937720596072816 0.7555429117559848
vt 0.09735968733080501 0.798382380184304
vt 0.08590485193748086 0.804852139353663
vt 0.474349699598965 0.515625
vt 0.5019716541004571 0.515625
vt 0.500314462096675 0.53125
vt 0.47269250759518283 0.53125
vt 0.3203125 0.546378125
vt 0.33203125 0.5539578125
vt 0.294921875 0.59375
vt 0.2734375 0.59375
vt 0.2734375 0.59375
vt 0.294921875 0.59375
vt 0.26953125 0.65625
vt 0.25 0.65625
vt 0.37890625 0.46875
vt 0.3984375 0.46875
vt 0.40118125 0.483384375
vt 0.38439375 0.483384375
vt 0.38439375 0.483384375
vt 0.40118125 0.483384375
vt 0.40625 0.5198
vt 0.39453125 0.5198
vt 0.1640625 0.09765312500000001
vt 0.17578125 0.09765312500000001
vt 0.17578125 0.12905937499999998
vt 0.1640625 0.12905937499999998
vt 0.1640625 0.12905937499999998
vt 0.17578125 0.12905937499999998
vt 0.17324687500000002 0.18141874999999996
vt 0.15392500000000003 0.18141874999999996
vt 0.15392500000000003 0.18141874999999996
vt 0.17324687500000002 0.18141874999999996
vt 0.16796875 0.20639062500000005
vt 0.140625 0.20639062499999994
vt 0.140625 0.20639062499999994
vt 0.16796875 0.20639062500000005
vt 0.162109375 0.27564374999999997
vt 0.13671875 0.27564374999999997
vt 0.40909762686255235 0.7836187375199122
vt 0.4098788655403577 0.7492442356964777
vt 0.7898882518625523 0.7523693375962298
vt 0.7898882518625523 0.793774987519912
vt 0.375 0.65625
vt 0.375 0.6093756793316805
vt 0.421875 0.6093756793316805
vt 0.421875 0.65625
vt 0.421875 0.65625
vt 0.421875 0.6093756793316805
vt 0.46875 0.6093756793316805
vt 0.46875 0.65625
vt 0.003546892525183587 0.9561975555997707
vt 0.003546892525183587 0.9147919056760884
vt 0.38536875054189157 0.9116668037763364
vt 0.3841968925251836 0.9460413055997707
vt 0.38419689977077714 0.9460410930623597
vt 0.38536875416474087 0.9116666975060908
vt 0.454618665939004 0.9124544168224054
vt 0.4522738185016052 0.9593285247628184
vt 0.4522738185016052 0.9593285247628184
vt 0.45461863487667264 0.9124550377664586
vt 0.5276919901055198 0.9124779861748441
vt 0.5199144391958078 0.9593526596676873
vt 0.5199144391958078 0.9593526596676873
vt 0.5276718121216095 0.9125995972601993
vt 0.5869965114912471 0.9174821356372956
vt 0.5862898355040389 0.9604444513446527
vt 0.5862898355040389 0.9604444513446527
vt 0.5869965114912471 0.9174821356372956
vt 0.6503907240422905 0.9263382209290872
vt 0.6527031074748164 0.9537233092208739
vt 0.5279356159924357 0.53125
vt 0.500314462096675 0.53125
vt 0.5019716541004571 0.515625
vt 0.5295928079962178 0.515625
vt 0.5295928079962178 0.515625
vt 0.5019716541004571 0.515625
vt 0.5036288461042393 0.5
vt 0.53125 0.5
vt 0.1632367481374477 0.7910937811241807
vt 0.1649449357483605 0.7635715062577965
vt 0.20070138473070667 0.7547922602979567
vt 0.20484358691538107 0.7977385607152063
vt 0.20484374732186145 0.7977402238075877
vt 0.2007014649351092 0.7547930918561984
vt 0.2652830263246781 0.7499854695639587
vt 0.2730566176276496 0.7968445809054027
vt 0.27306092403942805 0.796870539901849
vt 0.26528517956177244 0.7499984492502861
vt 0.3422397308926614 0.7500104281970745
vt 0.34067967287279655 0.7968845696852812
vt 0.34067957586599723 0.7968874843912601
vt 0.34223968238855884 0.7500118855711845
vt 0.40987889781932757 0.7492428154218029
vt 0.40909762686255235 0.7836187375199122
vn 0.9751176445449349 -0.22167303000192173 0.0025781906262536793
vn -0.9974169588985135 0.0035869707770922053 0.07173941554184406
vn 0.29256033850287405 0.9508211001343407 -0.1017235659737004
vn -0.02384710555436691 -0.9856803629138323 -0.1669297388805684
vn 0 0 -1
vn 0 0.9950371902099894 -0.09950371902099858
vn -0.9941108232711324 0.017815625585568935 0.10689375351341326
vn 0 -1 0
vn 0.994828428926176 -0.003383776171199469 0.10151328513598518
vn 0.993734165907172 0.05589952019144016 0.09678662692306349
vn 0 0.7383655341415621 -0.6744007250825327
vn -0.9309585174621614 0.36451179646566045 0.021151572093625542
vn 0 -0.34878267764603427 0.9372036298340201
vn 0.905753116533911 -0.06967323187743035 -0.41803939126458073
vn 0 1 0
vn -0.919145380339926 0 0.39391848116047146
vn -0.03032390953792781 -0.9855274695435399 0.1667814956325879
vn 0.7661235863740274 -0.05818671545764669 -0.640053870034116
vn 0 0.9805806553156389 0.19611623701456293
vn -0.7417372820004734 0.10596246885721046 0.6622671361952327
vn 0.552966753873355 -0.07899525055333642 0.8294501308100327
vn 0.2540003293132953 -0.8890008190679 0.38100049396994295
vn 0 -0.7179872380564767 0.6960562663952048
vn 0.9919572324255199 -0.09087815239066287 0.08810227271054019
vn 0 0.9311057987300483 -0.3647492173689738
vn -0.9073879785462927 0.4195881978322492 0.024347497398261312
vn 0.9821839887094319 -0.18531504805725663 0.03119207088936934
vn 0.000633290633040988 -0.99996590957172 0.008232778229532844
vn -0.989119415684332 -0.1441896036480032 0.029191432238201878
vn 0.19606951374348658 0.9803475687174328 0.021803446750717187
vn -0.2940313272511771 0.9556018135663257 0.019254934527568827
vn 0 0 -1
vn 0 -0.9999661315450692 0.008230173922181639
vn -0.012913412443404116 -0.9857238165131809 -0.16787436176425352
vn 0 -1 0
vn 0 -0.988371707147561 0.15205712252379408
vn -0.11162916803336724 -0.7814035815351079 0.6139603990554149
vn 0.552966753873355 -0.07899525055333642 0.8294501308100327
vn 0.08076279751731281 0.9893439514374296 0.12114419627596923
vn 0 1 0
vn 0 -0.34878267764603427 0.9372036298340201
vn 0 -0.7179872380564768 0.6960562663952048
vn 0 0.9950371902099894 -0.09950371902099858
vn 0 0.9311057987300484 -0.36474921736897387
vn 0 0.7383655341415621 -0.6744007250825327
vn 0 0.9967787445474133 -0.08020058864174584
vn 0.9747455683924314 0.22077204185079727 0.03362710865277706
vn 0 0 -1
vn 0 0 -1
vn -0.9821680489078659 0.18531741190479323 0.03167618268392081
vn -0.9968621133494779 0.03385125305047475 0.07155431248586996
vn -0.9942544193045322 0.00534545969819777 0.106909193963955
vn -0.9188789703501944 0.06486189858297604 0.3891713914978575
vn -0.7371535452156797 0 0.6757252775913856
vn 0.552966753873355 -0.07899525055333645 0.8294501308100326
vn 0.552966753873355 -0.07899525055333645 0.8294501308100326
vn 0.7699598760361102 -0.10999426800515863 -0.6285404126231404
vn 0.9064951990183404 -0.03822565164791024 -0.42048216812701106
vn 0.9946917683672212 0.01691655669270716 0.1014993401562433
vn 1 0 0
usemtl m_611d3c11-68ec-69a3-64e7-16fb2f144ffc
f 30/1/1 49/2/1 62/3/1 12/4/1
f 11/5/2 54/6/2 53/7/2 31/8/2
f 29/9/3 33/10/3 48/11/3 9/12/3
f 12/13/4 37/14/4 36/15/4 30/16/4
f 35/17/5 51/18/5 50/19/5 4/20/5
f 14/21/6 46/22/6 45/23/6 13/24/6
f 7/25/7 55/26/7 54/27/7 11/28/7
f 3/29/8 38/30/8 37/31/8 12/32/8
f 12/33/9 62/34/9 61/35/9 3/36/9
f 9/37/10 27/38/10 26/39/10 1/40/10
f 9/41/11 48/42/11 47/43/11 27/44/11
f 5/45/12 25/46/12 28/47/12 10/48/12
f 26/49/13 44/50/13 43/51/13 1/52/13
f 3/53/14 61/54/14 60/55/14 21/56/14
f 1/57/15 43/58/15 42/59/15 22/60/15
f 24/61/16 56/62/16 55/63/16 7/64/16
f 21/65/17 39/66/17 38/67/17 3/68/17
f 21/69/18 60/70/18 59/71/18 19/72/18
f 22/73/19 42/74/19 41/75/19 17/76/19
f 20/77/20 57/78/20 56/79/20 24/80/20
f 19/81/21 59/82/21 58/83/21 40/84/21
f 19/85/22 40/86/22 39/87/22 21/88/22
f 13/89/23 45/90/23 44/91/23 26/92/23
f 13/93/24 26/94/24 27/95/24 14/96/24
f 27/97/25 47/98/25 46/99/25 14/100/25
f 15/101/26 28/102/26 25/103/26 16/104/26
f 4/105/27 50/106/27 49/107/27 30/108/27
f 30/109/28 36/110/28 35/111/28 4/112/28
f 31/113/29 53/114/29 52/115/29 8/116/29
f 2/117/30 34/118/30 33/119/30 29/120/30
f 32/121/31 33/122/31 34/123/31 6/124/31
f 8/125/32 52/126/32 51/127/32 35/128/32
f 8/129/33 35/130/33 36/131/33 31/132/33
f 31/133/34 36/134/34 37/135/34 11/136/34
f 11/137/35 37/138/35 38/139/35 7/140/35
f 7/141/36 38/142/36 39/143/36 24/144/36
f 24/145/37 39/146/37 40/147/37 20/148/37
f 40/149/38 58/150/38 57/151/38 20/152/38
f 18/153/39 41/154/39 42/155/39 23/156/39
f 23/157/40 42/158/40 43/159/40 5/160/40
f 5/161/41 43/162/41 44/163/41 25/164/41
f 25/165/42 44/166/42 45/167/42 16/168/42
f 16/169/43 45/170/43 46/171/43 15/172/43
f 15/173/44 46/174/44 47/175/44 28/176/44
f 28/177/45 47/178/45 48/179/45 10/180/45
f 10/181/46 48/182/46 33/183/46 32/184/46
f 29/185/47 49/186/47 50/187/47 2/188/47
f 2/189/48 50/190/48 51/191/48 34/192/48
f 34/193/49 51/194/49 52/195/49 6/196/49
f 6/197/50 52/198/50 53/199/50 32/200/50
f 32/201/51 53/202/51 54/203/51 10/204/51
f 10/205/52 54/206/52 55/207/52 5/208/52
f 5/209/53 55/210/53 56/211/53 23/212/53
f 23/213/54 56/214/54 57/215/54 18/216/54
f 18/217/55 57/218/55 58/219/55 41/220/55
f 41/221/56 58/222/56 59/223/56 17/224/56
f 17/225/57 59/226/57 60/227/57 22/228/57
f 22/229/58 60/230/58 61/231/58 1/232/58
f 1/233/59 61/234/59 62/235/59 9/236/59
f 9/237/60 62/238/60 49/239/60 29/240/60