# Made in Blockbench 4.9.4
mtllib lv_1.mtl

o cuboid
v 0.25 0.5 1.5
v 0.5 1 -1.5
v 0.25 0 1.5
v 0.5 0 -1.5
v -0.25 0.5 1.5
v -0.5 1 -1.5
v -0.25 0 1.5
v -0.5 0 -1.5
v 0.08333333333333337 0.5 1.5
v 0.05208333333333337 0 1.5
v -0.08333333333333331 0.5 1.5
v -0.052083333333333315 0 1.5
v 0.16666666666666674 0 -1.5
v -0.16666666666666663 0 -1.5
v 0.16666666666666674 1 -1.5
v -0.16666666666666663 1 -1.5
v -0.052083333333333315 0.1875 1.5
v 0.05208333333333337 0.1875 1.5
v 0.25 0.25 1.5
v 0.5 0.5 -1.5
v 0.16666666666666674 0.5 -1.5
v -0.16666666666666663 0.5 -1.5
v -0.5 0.5 -1.5
v -0.25 0.25 1.5
vt 0.501953125 0.8203125
vt 0.501953125 0.8828125
vt 0.12565312500000003 0.8515625
vt 0.12565312500000003 0.8203125
vt 0.5013 0.6875
vt 0.5013 0.71875
vt 0.125 0.75
vt 0.125 0.6875
vt 0.03125 0.61982734375
vt 0.052083593750000004 0.61982734375
vt 0.041666406249999996 1
vt 0 1
vt 0.0859375 0.3046875
vt 0.12760390625 0.3046875
vt 0.13802109375 0.6796875
vt 0.1171875 0.6796875
vt 0.15364609375 0.9375
vt 0.15364609375 0.96875
vt 0.1328125 0.96875
vt 0.1328125 0.9375
vt 0.328125 0.5546875
vt 0.328125 0.6171875
vt 0.28645859375 0.6171875
vt 0.28645859375 0.5546875
vt 0.1953125 0.9375
vt 0.1953125 0.96875
vt 0.17447890625 0.96875
vt 0.17447890625 0.9375
vt 0.1796875 0.6796875
vt 0.15885390625 0.6796875
vt 0.16927109375 0.3046875
vt 0.2109375 0.3046875
vt 0.15885390625 0.6796875
vt 0.13802109375 0.6796875
vt 0.12760390625 0.3046875
vt 0.16927109375 0.3046875
vt 0.24479140625 0.5546875
vt 0.24479140625 0.6171875
vt 0.203125 0.6171875
vt 0.203125 0.5546875
vt 0.28645859375 0.5546875
vt 0.28645859375 0.6171875
vt 0.24479140625 0.6171875
vt 0.24479140625 0.5546875
vt 0.125 1
vt 0.08333359375 1
vt 0.07291640625 0.61982734375
vt 0.09375 0.61982734375
vt 0.08333359375 1
vt 0.041666406249999996 1
vt 0.052083593750000004 0.61982734375
vt 0.07291640625 0.61982734375
vt 0.15364609375 1
vt 0.15364609375 0.96875
vt 0.17447890625 0.96875
vt 0.17447890625 1
vt 0.17447890625 1
vt 0.17447890625 0.96875
vt 0.1953125 0.96875
vt 0.1953125 1
vt 0.12565312500000003 0.8828125
vt 0.12565312500000003 0.8515625
vt 0.501953125 0.8828125
vt 0.501953125 0.9453125
vt 0.203125 0.6796875
vt 0.203125 0.6171875
vt 0.24479140625 0.6171875
vt 0.24479140625 0.6796875
vt 0.24479140625 0.6796875
vt 0.24479140625 0.6171875
vt 0.28645859375 0.6171875
vt 0.28645859375 0.6796875
vt 0.28645859375 0.6796875
vt 0.28645859375 0.6171875
vt 0.328125 0.6171875
vt 0.328125 0.6796875
vt 0.125 0.8125
vt 0.125 0.75
vt 0.5013 0.71875
vt 0.5013 0.75
vt 0.1328125 1
vt 0.1328125 0.96875
vt 0.15364609375 0.96875
vt 0.15364609375 1
vn 0.9965457582448798 0 0.08304547985373999
vn -0.9965457582448798 0 0.08304547985373999
vn 0 0.9863939238321439 0.16439898730535732
vn 0 -1 0
vn 0 0 1
vn 0 0 -1
vn 0 0 1
vn 0 -1 0
vn 0 -1 0
vn 0 0 -1
vn 0 0 -1
vn 0 0.9863939238321439 0.16439898730535732
vn 0 0.9863939238321439 0.16439898730535732
vn 0 0 1
vn 0 0 1
vn 0.9965457582448798 0 0.08304547985373999
vn 0 0 -1
vn 0 0 -1
vn 0 0 -1
vn -0.9965457582448798 0 0.08304547985373999
vn 0 0 1
usemtl none
f 4/1/1 20/2/1 19/3/1 3/4/1
f 7/5/2 24/6/2 23/7/2 8/8/2
f 5/9/3 11/10/3 16/11/3 6/12/3
f 8/13/4 14/14/4 12/15/4 7/16/4
f 12/17/5 17/18/5 24/19/5 7/20/5
f 8/21/6 23/22/6 22/23/6 14/24/6
f 3/25/7 19/26/7 18/27/7 10/28/7
f 3/29/8 10/30/8 13/31/8 4/32/8
f 10/33/9 12/34/9 14/35/9 13/36/9
f 13/37/10 21/38/10 20/39/10 4/40/10
f 14/41/11 22/42/11 21/43/11 13/44/11
f 2/45/12 15/46/12 9/47/12 1/48/12
f 15/49/13 16/50/13 11/51/13 9/52/13
f 11/53/14 17/54/14 18/55/14 9/56/14
f 9/57/15 18/58/15 19/59/15 1/60/15
f 1/61/16 19/62/16 20/63/16 2/64/16
f 2/65/17 20/66/17 21/67/17 15/68/17
f 15/69/18 21/70/18 22/71/18 16/72/18
f 16/73/19 22/74/19 23/75/19 6/76/19
f 6/77/20 23/78/20 24/79/20 5/80/20
f 5/81/21 24/82/21 17/83/21 11/84/21